<?xml version="1.0" encoding="UTF-8"?>
<!-- Created with Inkscape (http://www.inkscape.org/) -->
<svg width="210mm" height="297mm" version="1.1" viewBox="0 0 210 297" xmlns="http://www.w3.org/2000/svg">
 <defs>
  <mask id="mask18070" maskUnits="userSpaceOnUse">
   <rect x="95.794" y="3.4212" width="98.952" height="122.9" fill="#fff"/>
  </mask>
  <mask id="mask18074" maskUnits="userSpaceOnUse">
   <rect x="95.794" y="3.4212" width="98.952" height="122.9" fill="#fff"/>
  </mask>
  <mask id="mask18078" maskUnits="userSpaceOnUse">
   <rect x="95.794" y="3.4212" width="98.952" height="122.9" fill="#fff"/>
  </mask>
  <mask id="mask18082" maskUnits="userSpaceOnUse">
   <rect x="95.794" y="3.4212" width="98.952" height="122.9" fill="#fff"/>
  </mask>
  <mask id="mask18086" maskUnits="userSpaceOnUse">
   <rect transform="rotate(.40592)" x="95.794" y="3.4212" width="98.952" height="122.9" fill="#fff"/>
  </mask>
  <mask id="mask18090" maskUnits="userSpaceOnUse">
   <rect transform="rotate(.25844)" x="95.794" y="3.4212" width="98.952" height="122.9" fill="#fff"/>
  </mask>
  <mask id="mask18943" maskUnits="userSpaceOnUse">
   <rect transform="rotate(-41.847)" x="26.832" y="65.662" width="87.492" height="124.29" fill="#fff"/>
  </mask>
 </defs>
 <circle cx="30.891" cy="62.385" r=".049574" fill="#e71c39" stroke="#000" stroke-width=".26458"/>
 <g>
  <path transform="translate(-29.738 13.948)" d="m69.893 63.159c-5.679-2.5883 0.36515-7.4453 4.2689-9.8887 1.1686 4.4681 1.6808 13.136-4.2689 9.8887z" mask="url(#mask18078)"/>
  <path transform="translate(-29.738 13.948)" d="m52.252 38.874c-5.679-2.5883 0.36515-7.4453 4.2689-9.8888 1.1686 4.4681 1.6808 13.136-4.2689 9.8888z" mask="url(#mask18074)"/>
  <path transform="translate(-29.738 13.948)" d="m88.539 40.363c-5.679-2.5883 0.36515-7.4453 4.2689-9.8888 1.1686 4.4681 1.6808 13.136-4.2689 9.8888z" mask="url(#mask18070)"/>
 </g>
 <g mask="url(#mask18943)">
  <g>
   <path transform="rotate(-.25844 3077.4 6600)" d="m186.95 21.482a84.646 87.651 0 0 1-42.665 76.111 84.646 87.651 0 0 1-84.985-0.61438 84.646 87.651 0 0 1-41.634-76.721" fill="#fff" mask="url(#mask18090)" stroke-width="7.765"/>
   <path transform="rotate(-.40592 1953.9 4204.5)" d="m167.8 20.8a65.303 67.621 0 0 1-32.915 58.718 65.303 67.621 0 0 1-65.564-0.47398 65.303 67.621 0 0 1-32.12-59.189" fill="#f486a1" mask="url(#mask18086)" stroke-width="7.765"/>
   <path transform="translate(-29.738 13.948)" d="m17.943 19.785c-0.20566 23.746 18.507 80.187 82.233 84.1 28.316 0.062 48.387-10.465 61.861-24.876 7.892-8.4408 13.521-18.214 17.218-27.973 4.1636-10.99 5.8776-21.961 5.6147-30.991" fill="none" mask="url(#mask18082)" stroke="#75b847" stroke-width="10.127"/>
  </g>
  <g>
   <path d="m100.29 49.299c-3.2334 5.3381-7.3518-1.2315-9.323-5.3938 4.574-0.63923 13.242-0.13638 9.323 5.3938z"/>
   <path d="m111.51 71.735c-4.8425 3.9371-6.5074-3.6359-6.9614-8.2189 4.522 0.93878 12.514 4.332 6.9614 8.2189z"/>
   <path d="m124.19 48.311c-2.0529 5.8937-7.4472 0.32384-10.241-3.3376 4.3411-1.5762 12.925-2.8865 10.241 3.3376z"/>
  </g>
 </g>
</svg>
